<svg xmlns="http://www.w3.org/2000/svg" width="1920" height="600" viewBox="0 0 1920 600">
  <defs>
    <linearGradient id="cta-bg" x1="0%" y1="0%" x2="100%" y2="100%">
      <stop offset="0%" style="stop-color:#1e88e5"/>
      <stop offset="30%" style="stop-color:#1565c0"/>
      <stop offset="70%" style="stop-color:#0d47a1"/>
      <stop offset="100%" style="stop-color:#0a192f"/>
    </linearGradient>
    <radialGradient id="light1" cx="20%" cy="50%" r="50%">
      <stop offset="0%" style="stop-color:#64b5f6;stop-opacity:0.3"/>
      <stop offset="100%" style="stop-color:#64b5f6;stop-opacity:0"/>
    </radialGradient>
    <radialGradient id="light2" cx="80%" cy="50%" r="50%">
      <stop offset="0%" style="stop-color:#90caf9;stop-opacity:0.2"/>
      <stop offset="100%" style="stop-color:#90caf9;stop-opacity:0"/>
    </radialGradient>
  </defs>
  
  <rect width="1920" height="600" fill="url(#cta-bg)"/>
  <rect width="1920" height="600" fill="url(#light1)"/>
  <rect width="1920" height="600" fill="url(#light2)"/>
  
  <g opacity="0.15">
    <circle cx="300" cy="300" r="200" stroke="#ffffff" stroke-width="2" fill="none"/>
    <circle cx="300" cy="300" r="150" stroke="#ffffff" stroke-width="1" fill="none"/>
    <circle cx="300" cy="300" r="100" stroke="#ffffff" stroke-width="1" fill="none"/>
    
    <circle cx="1600" cy="300" r="200" stroke="#ffffff" stroke-width="2" fill="none"/>
    <circle cx="1600" cy="300" r="150" stroke="#ffffff" stroke-width="1" fill="none"/>
    <circle cx="1600" cy="300" r="100" stroke="#ffffff" stroke-width="1" fill="none"/>
    
    <path d="M0 300 Q 480 200, 960 300 T 1920 300" stroke="#ffffff" stroke-width="2" fill="none"/>
    <path d="M0 350 Q 480 250, 960 350 T 1920 350" stroke="#ffffff" stroke-width="1" fill="none"/>
    <path d="M0 250 Q 480 150, 960 250 T 1920 250" stroke="#ffffff" stroke-width="1" fill="none"/>
  </g>
</svg>
