<svg xmlns="http://www.w3.org/2000/svg" width="1920" height="1080" viewBox="0 0 1920 1080">
  <defs>
    <linearGradient id="sky" x1="0%" y1="0%" x2="0%" y2="100%">
      <stop offset="0%" style="stop-color:#0f172a"/>
      <stop offset="40%" style="stop-color:#1e3a5f"/>
      <stop offset="70%" style="stop-color:#3b82f6"/>
      <stop offset="100%" style="stop-color:#60a5fa"/>
    </linearGradient>
    <linearGradient id="building1" x1="0%" y1="0%" x2="0%" y2="100%">
      <stop offset="0%" style="stop-color:#1e293b"/>
      <stop offset="100%" style="stop-color:#0f172a"/>
    </linearGradient>
    <linearGradient id="building2" x1="0%" y1="0%" x2="0%" y2="100%">
      <stop offset="0%" style="stop-color:#334155"/>
      <stop offset="100%" style="stop-color:#1e293b"/>
    </linearGradient>
    <radialGradient id="glow1" cx="50%" cy="50%" r="50%">
      <stop offset="0%" style="stop-color:#60a5fa;stop-opacity:0.3"/>
      <stop offset="100%" style="stop-color:#60a5fa;stop-opacity:0"/>
    </radialGradient>
    <radialGradient id="glow2" cx="50%" cy="50%" r="50%">
      <stop offset="0%" style="stop-color:#34d399;stop-opacity:0.2"/>
      <stop offset="100%" style="stop-color:#34d399;stop-opacity:0"/>
    </radialGradient>
    <filter id="blur">
      <feGaussianBlur stdDeviation="2"/>
    </filter>
  </defs>
  
  <rect width="1920" height="1080" fill="url(#sky)"/>
  
  <circle cx="1400" cy="200" r="120" fill="url(#glow1)"/>
  <circle cx="400" cy="600" r="150" fill="url(#glow2)"/>
  
  <g opacity="0.8">
    <rect x="100" y="400" width="120" height="680" fill="url(#building1)"/>
    <rect x="110" y="420" width="20" height="30" fill="#fbbf24" opacity="0.6"/>
    <rect x="150" y="420" width="20" height="30" fill="#fbbf24" opacity="0.4"/>
    <rect x="190" y="420" width="20" height="30" fill="#fbbf24" opacity="0.7"/>
    <rect x="110" y="470" width="20" height="30" fill="#fbbf24" opacity="0.5"/>
    <rect x="150" y="470" width="20" height="30" fill="#fbbf24" opacity="0.8"/>
    <rect x="190" y="470" width="20" height="30" fill="#fbbf24" opacity="0.3"/>
    <rect x="110" y="520" width="20" height="30" fill="#fbbf24" opacity="0.9"/>
    <rect x="150" y="520" width="20" height="30" fill="#fbbf24" opacity="0.4"/>
    <rect x="190" y="520" width="20" height="30" fill="#fbbf24" opacity="0.6"/>
    
    <rect x="250" y="300" width="150" height="780" fill="url(#building2)"/>
    <rect x="260" y="320" width="25" height="35" fill="#60a5fa" opacity="0.5"/>
    <rect x="300" y="320" width="25" height="35" fill="#60a5fa" opacity="0.7"/>
    <rect x="340" y="320" width="25" height="35" fill="#60a5fa" opacity="0.4"/>
    <rect x="260" y="380" width="25" height="35" fill="#60a5fa" opacity="0.8"/>
    <rect x="300" y="380" width="25" height="35" fill="#60a5fa" opacity="0.3"/>
    <rect x="340" y="380" width="25" height="35" fill="#60a5fa" opacity="0.6"/>
    
    <rect x="450" y="200" width="100" height="880" fill="url(#building1)"/>
    <rect x="460" y="220" width="18" height="25" fill="#fbbf24" opacity="0.7"/>
    <rect x="495" y="220" width="18" height="25" fill="#fbbf24" opacity="0.5"/>
    <rect x="530" y="220" width="18" height="25" fill="#fbbf24" opacity="0.8"/>
    <rect x="460" y="270" width="18" height="25" fill="#fbbf24" opacity="0.4"/>
    <rect x="495" y="270" width="18" height="25" fill="#fbbf24" opacity="0.9"/>
    <rect x="530" y="270" width="18" height="25" fill="#fbbf24" opacity="0.6"/>
    
    <rect x="600" y="350" width="180" height="730" fill="url(#building2)"/>
    <rect x="1400" y="250" width="140" height="830" fill="url(#building1)"/>
    <rect x="1570" y="320" width="160" height="760" fill="url(#building2)"/>
    <rect x="1760" y="400" width="160" height="680" fill="url(#building1)"/>
  </g>
  
  <g stroke="#3b82f6" stroke-width="2" opacity="0.4" filter="url(#blur)">
    <line x1="0" y1="500" x2="1920" y2="500"/>
    <line x1="0" y1="550" x2="1920" y2="550"/>
    <line x1="0" y1="600" x2="1920" y2="600"/>
  </g>
  
  <g stroke="#60a5fa" stroke-width="1" opacity="0.3">
    <path d="M0 400 Q 480 350, 960 400 T 1920 400"/>
    <path d="M0 450 Q 480 400, 960 450 T 1920 450"/>
  </g>
  
  <rect x="0" y="900" width="1920" height="180" fill="#0f172a" opacity="0.8"/>
  <g stroke="#fbbf24" stroke-width="3" opacity="0.5">
    <line x1="0" y1="950" x2="1920" y2="950"/>
    <line x1="960" y1="950" x2="960" y2="1080"/>
  </g>
</svg>
