<svg xmlns="http://www.w3.org/2000/svg" width="1920" height="600" viewBox="0 0 1920 600">
  <defs>
    <linearGradient id="bg" x1="0%" y1="0%" x2="100%" y2="100%">
      <stop offset="0%" style="stop-color:#1e1b4b"/>
      <stop offset="50%" style="stop-color:#312e81"/>
      <stop offset="100%" style="stop-color:#1e1b4b"/>
    </linearGradient>
    <radialGradient id="light1" cx="50%" cy="50%" r="60%">
      <stop offset="0%" style="stop-color:#8b5cf6;stop-opacity:0.2"/>
      <stop offset="100%" style="stop-color:#8b5cf6;stop-opacity:0"/>
    </radialGradient>
  </defs>
  
  <rect width="1920" height="600" fill="url(#bg)"/>
  <rect width="1920" height="600" fill="url(#light1)"/>
  
  <g opacity="0.2">
    <path d="M0 0 Q 480 300, 960 0 T 1920 0" stroke="#8b5cf6" stroke-width="2" fill="none"/>
    <path d="M0 100 Q 480 400, 960 100 T 1920 100" stroke="#8b5cf6" stroke-width="1" fill="none"/>
    <path d="M0 200 Q 480 500, 960 200 T 1920 200" stroke="#8b5cf6" stroke-width="1" fill="none"/>
    <path d="M0 300 Q 480 600, 960 300 T 1920 300" stroke="#8b5cf6" stroke-width="2" fill="none"/>
    
    <circle cx="200" cy="150" r="6" fill="#8b5cf6"/>
    <circle cx="600" cy="250" r="6" fill="#8b5cf6"/>
    <circle cx="1000" cy="150" r="6" fill="#8b5cf6"/>
    <circle cx="1400" cy="250" r="6" fill="#8b5cf6"/>
    <circle cx="1800" cy="150" r="6" fill="#8b5cf6"/>
    
    <circle cx="200" cy="150" r="15" fill="#8b5cf6" opacity="0.2"/>
    <circle cx="600" cy="250" r="15" fill="#8b5cf6" opacity="0.2"/>
    <circle cx="1000" cy="150" r="15" fill="#8b5cf6" opacity="0.2"/>
    <circle cx="1400" cy="250" r="15" fill="#8b5cf6" opacity="0.2"/>
    <circle cx="1800" cy="150" r="15" fill="#8b5cf6" opacity="0.2"/>
  </g>
</svg>
