<svg xmlns="http://www.w3.org/2000/svg" width="800" height="500" viewBox="0 0 800 500">
  <defs>
    <linearGradient id="bg" x1="0%" y1="0%" x2="100%" y2="100%">
      <stop offset="0%" style="stop-color:#581c87"/>
      <stop offset="50%" style="stop-color:#7c3aed"/>
      <stop offset="100%" style="stop-color:#6d28d9"/>
    </linearGradient>
    <radialGradient id="light1" cx="50%" cy="40%" r="50%">
      <stop offset="0%" style="stop-color:#a78bfa;stop-opacity:0.4"/>
      <stop offset="100%" style="stop-color:#a78bfa;stop-opacity:0"/>
    </radialGradient>
  </defs>
  
  <rect width="800" height="500" fill="url(#bg)"/>
  <rect width="800" height="500" fill="url(#light1)"/>
  
  <g opacity="0.6">
    <rect x="200" y="100" width="400" height="250" rx="20" fill="#1e1b4b" stroke="#a78bfa" stroke-width="2"/>
    
    <polygon points="350,180 350,280 430,230" fill="#a78bfa"/>
    
    <rect x="250" y="380" width="300" height="15" rx="7" fill="#1e1b4b" stroke="#a78bfa" stroke-width="1"/>
    <rect x="270" y="410" width="260" height="10" rx="5" fill="#1e1b4b" stroke="#a78bfa" stroke-width="1" opacity="0.6"/>
    
    <circle cx="250" cy="150" r="15" fill="#7c3aed"/>
    <circle cx="300" cy="150" r="15" fill="#7c3aed"/>
    <circle cx="350" cy="150" r="15" fill="#7c3aed"/>
    
    <circle cx="450" cy="150" r="15" fill="#a78bfa"/>
    <circle cx="500" cy="150" r="15" fill="#a78bfa"/>
    <circle cx="550" cy="150" r="15" fill="#a78bfa"/>
    
    <line x1="250" y1="165" x2="250" y2="300" stroke="#a78bfa" stroke-width="2" opacity="0.4"/>
    <line x1="300" y1="165" x2="300" y2="300" stroke="#a78bfa" stroke-width="2" opacity="0.4"/>
    <line x1="350" y1="165" x2="350" y2="300" stroke="#a78bfa" stroke-width="2" opacity="0.4"/>
  </g>
</svg>
